<svg width="32" height="32" viewBox="0 0 32 32" fill="none" xmlns="http://www.w3.org/2000/svg">
<g id="Icon/arrows-expand">
<path id="Icon" fill-rule="evenodd" clip-rule="evenodd" d="M4.79999 6.40005C4.79999 5.51639 5.51633 4.80005 6.39999 4.80005H12.8C13.6836 4.80005 14.4 5.51639 14.4 6.40005C14.4 7.2837 13.6836 8.00005 12.8 8.00005H10.2627L13.9314 11.6687C14.5562 12.2935 14.5562 13.3066 13.9314 13.9314C13.3065 14.5563 12.2935 14.5563 11.6686 13.9314L7.99999 10.2628V12.8C7.99999 13.6837 7.28364 14.4 6.39999 14.4C5.51633 14.4 4.79999 13.6837 4.79999 12.8V6.40005ZM19.2 8.00005C18.3163 8.00005 17.6 7.2837 17.6 6.40005C17.6 5.51639 18.3163 4.80005 19.2 4.80005H25.6C26.4836 4.80005 27.2 5.51639 27.2 6.40005V12.8C27.2 13.6837 26.4836 14.4 25.6 14.4C24.7163 14.4 24 13.6837 24 12.8V10.2628L20.3314 13.9314C19.7065 14.5563 18.6935 14.5563 18.0686 13.9314C17.4438 13.3066 17.4438 12.2935 18.0686 11.6687L21.7372 8.00005H19.2ZM4.79999 19.2001C4.79999 18.3164 5.51633 17.6 6.39999 17.6C7.28364 17.6 7.99999 18.3164 7.99999 19.2001V21.7373L11.6686 18.0687C12.2935 17.4438 13.3065 17.4438 13.9314 18.0687C14.5562 18.6935 14.5562 19.7066 13.9314 20.3314L10.2627 24H12.8C13.6836 24 14.4 24.7164 14.4 25.6C14.4 26.4837 13.6836 27.2001 12.8 27.2001H6.39999C5.51633 27.2001 4.79999 26.4837 4.79999 25.6V19.2001ZM25.6 17.6C26.4836 17.6 27.2 18.3164 27.2 19.2001V25.6C27.2 26.4837 26.4836 27.2001 25.6 27.2001H19.2C18.3163 27.2001 17.6 26.4837 17.6 25.6C17.6 24.7164 18.3163 24 19.2 24H21.7372L18.0686 20.3314C17.4438 19.7066 17.4438 18.6935 18.0686 18.0687C18.6935 17.4438 19.7065 17.4438 20.3314 18.0687L24 21.7373V19.2001C24 18.3164 24.7163 17.6 25.6 17.6Z" fill="#64748B"/>
</g>
</svg>
