<svg width="33" height="32" viewBox="0 0 33 32" fill="none" xmlns="http://www.w3.org/2000/svg">
<g id="Icon/chevron-double-left">
<path id="Icon" fill-rule="evenodd" clip-rule="evenodd" d="M25.143 25.1313C24.5181 25.7561 23.5051 25.7561 22.8802 25.1313L14.8802 17.1313C14.2554 16.5064 14.2554 15.4934 14.8802 14.8685L22.8802 6.86853C23.5051 6.24369 24.5181 6.24369 25.143 6.86853C25.7678 7.49337 25.7678 8.50644 25.143 9.13127L18.2743 15.9999L25.143 22.8685C25.7678 23.4934 25.7678 24.5064 25.143 25.1313ZM15.543 25.1313C14.9181 25.7561 13.9051 25.7561 13.2802 25.1313L5.28023 17.1313C4.65539 16.5064 4.65539 15.4934 5.28023 14.8685L13.2802 6.86853C13.9051 6.24369 14.9181 6.24369 15.543 6.86853C16.1678 7.49337 16.1678 8.50644 15.543 9.13127L8.67434 15.9999L15.543 22.8685C16.1678 23.4934 16.1678 24.5064 15.543 25.1313Z" fill="#94A3B8"/>
</g>
</svg>
