<svg width="33" height="32" viewBox="0 0 33 32" fill="none" xmlns="http://www.w3.org/2000/svg">
<g id="Icon/chevron-double-right">
<g id="Icon">
<path fill-rule="evenodd" clip-rule="evenodd" d="M16.4802 25.1313C15.8554 24.5064 15.8554 23.4934 16.4802 22.8685L23.3489 15.9999L16.4802 9.13127C15.8554 8.50644 15.8554 7.49337 16.4802 6.86853C17.1051 6.24369 18.1181 6.24369 18.743 6.86853L26.743 14.8685C27.3678 15.4934 27.3678 16.5064 26.743 17.1313L18.743 25.1313C18.1181 25.7561 17.1051 25.7561 16.4802 25.1313Z" fill="#64748B"/>
<path fill-rule="evenodd" clip-rule="evenodd" d="M6.88023 25.1313C6.25539 24.5064 6.25539 23.4934 6.88023 22.8685L13.7489 15.9999L6.88023 9.13127C6.25539 8.50644 6.25539 7.49337 6.88023 6.86853C7.50507 6.24369 8.51813 6.24369 9.14297 6.86853L17.143 14.8685C17.7678 15.4934 17.7678 16.5064 17.143 17.1313L9.14297 25.1313C8.51813 25.7561 7.50507 25.7561 6.88023 25.1313Z" fill="#64748B"/>
</g>
</g>
</svg>
