<svg width="40" height="40" viewBox="0 0 40 40" fill="none" xmlns="http://www.w3.org/2000/svg">
<rect width="40" height="40" rx="20" fill="url(#paint0_linear_1_496)"/>
<path fill-rule="evenodd" clip-rule="evenodd" d="M20 15.5C20.4971 15.5 20.9 15.9029 20.9 16.4V19.1L23.6 19.1C24.0971 19.1 24.5 19.5029 24.5 20C24.5 20.4971 24.0971 20.9 23.6 20.9H20.9V23.6C20.9 24.0971 20.4971 24.5 20 24.5C19.5029 24.5 19.1 24.0971 19.1 23.6V20.9H16.4C15.9029 20.9 15.5 20.4971 15.5 20C15.5 19.5029 15.9029 19.1 16.4 19.1L19.1 19.1V16.4C19.1 15.9029 19.5029 15.5 20 15.5Z" fill="white"/>
<defs>
<linearGradient id="paint0_linear_1_496" x1="0" y1="0" x2="40" y2="30.5" gradientUnits="userSpaceOnUse">
<stop stop-color="#293F8E"/>
<stop offset="1" stop-color="#E9555E"/>
</linearGradient>
</defs>
</svg>
