<svg width="32" height="32" viewBox="0 0 32 32" fill="none" xmlns="http://www.w3.org/2000/svg">
<g id="Icon/question-mark-circle">
<path id="Icon" fill-rule="evenodd" clip-rule="evenodd" d="M28.8 16C28.8 23.0692 23.0693 28.7999 16 28.7999C8.93077 28.7999 3.20001 23.0692 3.20001 16C3.20001 8.93071 8.93077 3.19995 16 3.19995C23.0693 3.19995 28.8 8.93071 28.8 16ZM16 11.2C15.4098 11.2 14.8922 11.5187 14.6131 12.0011C14.1706 12.766 13.1919 13.0274 12.427 12.5849C11.6621 12.1425 11.4007 11.1637 11.8432 10.3988C12.6707 8.96824 14.2213 7.99995 16 7.99995C18.651 7.99995 20.8 10.149 20.8 12.8C20.8 14.8899 19.4643 16.6679 17.6 17.3268V17.6C17.6 18.4836 16.8837 19.2 16 19.2C15.1164 19.2 14.4 18.4836 14.4 17.6V16C14.4 15.1163 15.1164 14.4 16 14.4C16.8837 14.4 17.6 13.6836 17.6 12.8C17.6 11.9163 16.8837 11.2 16 11.2ZM16 24C16.8837 24 17.6 23.2836 17.6 22.4C17.6 21.5163 16.8837 20.7999 16 20.7999C15.1164 20.7999 14.4 21.5163 14.4 22.4C14.4 23.2836 15.1164 24 16 24Z" fill="#64748B"/>
</g>
</svg>
