<svg width="26" height="30" viewBox="0 0 26 30" fill="none" xmlns="http://www.w3.org/2000/svg">
<path id="Union" fill-rule="evenodd" clip-rule="evenodd" d="M25.4999 13.4373C25.4953 10.5131 24.5383 7.6699 22.7739 5.33796C21.0094 3.00601 18.5335 1.31218 15.7206 0.512729C12.9078 -0.286726 9.91108 -0.148301 7.18391 0.907054C4.45674 1.96241 2.14749 3.87727 0.605522 6.36194L2.00318 7.7596C2.39335 7.06707 2.85405 6.41673 3.37793 5.81892L3.36189 5.80288L3.85222 5.31255C5.4634 3.69201 7.5194 2.58626 9.75966 2.13543C11.9999 1.68459 14.3236 1.90896 16.4362 2.78012C18.5488 3.65127 20.3553 5.12999 21.6266 7.02887C22.898 8.92775 23.577 11.1613 23.5776 13.4465C23.5776 13.6756 23.5776 13.9047 23.557 14.1339V14.2301V14.3011V14.4432C23.557 14.489 23.557 14.5257 23.5455 14.5669L23.5249 14.7525C23.5249 14.7892 23.5249 14.8281 23.5111 14.8693C23.5019 14.8971 23.4988 14.9364 23.4958 14.9766V14.9766C23.4943 14.996 23.4927 15.0157 23.4905 15.0343L23.4768 15.126C23.4768 15.1626 23.469 15.2026 23.4612 15.2429C23.4578 15.2605 23.4543 15.2781 23.4516 15.2955C23.4471 15.3235 23.4442 15.3394 23.442 15.3522L23.442 15.3522C23.4396 15.3655 23.4379 15.3753 23.4355 15.3917C23.4341 15.4014 23.4336 15.4104 23.4331 15.4191C23.4318 15.4394 23.4307 15.458 23.4195 15.4788C23.4087 15.4988 23.4062 15.527 23.4036 15.5559V15.556C23.4024 15.5701 23.4011 15.5844 23.3989 15.598C23.3954 15.6186 23.3914 15.6375 23.3874 15.6564C23.3834 15.6753 23.3794 15.6942 23.3759 15.7148L23.3484 15.85C23.282 16.1639 23.1995 16.4824 23.1193 16.7871C23.1147 16.8016 23.1104 16.8162 23.1061 16.8307C23.0974 16.8597 23.0888 16.8887 23.0781 16.9177C23.0679 16.9453 23.0624 16.9655 23.0568 16.9859C23.0535 16.9977 23.0502 17.0097 23.046 17.0231C22.9796 17.2248 22.9062 17.4287 22.8306 17.6257L22.7963 17.7082L22.7298 17.8182C22.7138 17.8548 22.6954 17.8984 22.6794 17.9396L22.6336 18.0427V18.0588L22.5717 18.2008C22.5557 18.2375 22.5396 18.2719 22.5213 18.3062C22.2279 18.9387 21.8775 19.543 21.4742 20.1117L21.4101 20.2011L21.2703 20.389L21.2565 20.4074C21.2396 20.4303 21.2213 20.455 21.2016 20.4783L21.0503 20.6731L20.9587 20.7831L20.8739 20.8862L20.78 20.9961C20.7677 21.0099 20.7558 21.0236 20.7438 21.0374C20.7199 21.0649 20.6959 21.0924 20.67 21.1199L22.0264 22.4763C24.2713 20.0021 25.5102 16.7781 25.4999 13.4373ZM22.6565 23.5922C23.1797 22.9938 23.6403 22.3435 24.0313 21.6515L25.3877 23.0766C24.4026 24.6648 23.0975 26.0303 21.5555 27.0861C20.0135 28.142 18.2685 28.865 16.4316 29.2091C14.5948 29.5532 12.7063 29.5109 10.8867 29.0848C9.06712 28.6587 7.35623 27.8582 5.86311 26.7344C4.36998 25.6105 3.12737 24.1879 2.21447 22.5572C1.30156 20.9265 0.738397 19.1235 0.560854 17.2631C0.383311 15.4028 0.595289 13.5258 1.18328 11.7519C1.77126 9.97796 2.72236 8.34599 3.97596 6.95998L5.33238 8.31641L5.2224 8.44013L5.22233 8.44021C5.19028 8.47455 5.15822 8.50889 5.12846 8.54781C5.11077 8.57095 5.09227 8.59247 5.07392 8.61382L5.0739 8.61384L5.07389 8.61385C5.06136 8.62843 5.04889 8.64293 5.03681 8.6578L5.0093 8.6921C4.98851 8.71817 4.96738 8.74467 4.94516 8.77007L4.79394 8.96253C4.76873 8.99232 4.74582 9.0244 4.7252 9.05418L4.58772 9.23978L4.52128 9.32914C4.11852 9.89817 3.76806 10.5025 3.47418 11.1346L3.42606 11.24C3.40315 11.2881 3.38254 11.3362 3.36192 11.3844L3.36191 11.3844V11.4004C3.35703 11.4109 3.35109 11.4213 3.34518 11.4317C3.33168 11.4555 3.31837 11.4789 3.31837 11.5012L3.26568 11.625C3.25422 11.657 3.24047 11.6914 3.22901 11.7189C3.22567 11.7269 3.22155 11.7351 3.21739 11.7434C3.20728 11.7636 3.19694 11.7842 3.19694 11.8037C3.11903 12.0007 3.04571 12.2046 2.98156 12.404C2.97324 12.4262 2.96743 12.445 2.9611 12.4656L2.9611 12.4656C2.95697 12.479 2.95262 12.4931 2.94719 12.5094C2.94315 12.5215 2.93831 12.5337 2.9335 12.5457C2.92195 12.5747 2.91053 12.6033 2.91053 12.6308C2.82805 12.9378 2.74556 13.254 2.68141 13.5679C2.66995 13.6138 2.65849 13.6665 2.65162 13.7054C2.64843 13.7235 2.64475 13.7406 2.64103 13.7578L2.64101 13.7579L2.64101 13.7579C2.63672 13.7778 2.63238 13.7979 2.62871 13.82C2.62643 13.8336 2.62516 13.8486 2.62389 13.8634C2.62134 13.8934 2.61881 13.923 2.60809 13.9414C2.60007 13.9552 2.60007 13.9683 2.60007 13.9821C2.60007 13.9958 2.60007 14.0102 2.59205 14.0262C2.58241 14.0455 2.58187 14.0565 2.58099 14.0746C2.5804 14.0867 2.57967 14.1019 2.57601 14.1247C2.57315 14.1426 2.56961 14.1605 2.56611 14.1783C2.55839 14.2173 2.55081 14.2557 2.55081 14.292L2.53706 14.3859C2.53472 14.4046 2.53159 14.4236 2.52847 14.4424C2.52243 14.4791 2.51644 14.5153 2.51644 14.5486C2.50727 14.5898 2.50269 14.6288 2.50269 14.6654L2.48207 14.851V14.9748L2.46832 15.1168C2.46946 15.1374 2.46946 15.1581 2.46832 15.1787V15.2749C2.4477 15.504 2.4477 15.7332 2.4477 15.9623V15.9623C2.44539 18.2496 3.12292 20.486 4.39423 22.3874C5.66555 24.2888 7.4733 25.7695 9.58788 26.6414C11.7025 27.5133 14.0285 27.7371 16.2705 27.2843C18.5125 26.8316 20.5694 25.7227 22.1799 24.0985L22.6703 23.6059L22.6565 23.5922ZM10.1011 25.3465C8.86966 24.8352 7.7519 24.0847 6.81251 23.1385L6.78043 23.276C5.83649 22.3317 5.0881 21.2105 4.57814 19.9766C4.06818 18.7427 3.80667 17.4203 3.80859 16.0852C3.8105 14.75 4.07581 13.4284 4.58931 12.1959C5.1028 10.9635 5.8544 9.84448 6.80105 8.90296C7.53567 8.17449 8.37611 7.56115 9.29393 7.08371L10.7328 8.5226C9.7743 8.93388 8.90149 9.52145 8.15976 10.2548C6.64739 11.7535 5.77451 13.7799 5.72439 15.9085C5.67428 18.0371 6.45082 20.1024 7.89098 21.6706C9.33114 23.2389 11.3229 24.1882 13.4481 24.3192C15.5732 24.4502 17.6665 23.7527 19.2884 22.3732L20.6448 23.7296L20.5898 23.7777L20.4088 23.9312L20.3125 24.0114L20.2163 24.0871L20.1934 24.1031L20.1361 24.1489L20.0422 24.2222L19.9551 24.2864L19.9047 24.3231L19.8337 24.3735H19.8199L19.726 24.4399C19.6114 24.5201 19.506 24.5888 19.4029 24.6553L19.1738 24.7973L19.034 24.8798L18.9699 24.9165C18.7659 25.031 18.5552 25.141 18.3421 25.2418L18.239 25.2922H18.2183L18.1496 25.322L18.0213 25.3793L17.8792 25.4412L17.7349 25.4985L17.6478 25.5328C17.6112 25.5489 17.5722 25.5626 17.531 25.5764L17.4508 25.6084H17.4324L17.366 25.6336L17.1117 25.7184L17.0292 25.7436L16.9146 25.7803L16.839 25.8032H16.8253L16.7657 25.8215L16.6878 25.8422L16.5893 25.8696L16.4655 25.9017H16.4197L16.241 25.943L15.9706 26.0003L15.8675 26.0186H15.8561L15.7759 26.0323H15.7644L15.6636 26.0484C15.5445 26.069 15.4207 26.0873 15.2947 26.1033H15.1939H15.1435H15.0656H14.9487L14.8113 26.1171H14.7769H14.7081H14.5592H14.3736H14.243H13.9864C12.6531 26.1197 11.3325 25.8577 10.1011 25.3465ZM16.7061 22.4649L15.2672 21.026C16.2454 20.5873 17.1293 19.9633 17.8701 19.1884C19.3824 17.6896 20.2553 15.6632 20.3054 13.5346C20.3555 11.406 19.579 9.34079 18.1388 7.77254C16.6987 6.20429 14.7069 5.255 12.5818 5.124C10.4566 4.99299 8.36334 5.69047 6.74147 7.06998L5.38505 5.71125L5.44004 5.66315L5.62105 5.50964L5.72644 5.42485L5.82268 5.34695L5.84559 5.33091L5.90287 5.28509L5.99681 5.21406L6.08388 5.14991L6.13199 5.11324L6.20531 5.06055L6.22364 5.0468L6.31071 4.98723C6.42527 4.90932 6.53067 4.8383 6.63378 4.77414L6.72772 4.71457L6.87436 4.6252L7.00725 4.54731L7.06912 4.51064C7.27304 4.39608 7.48383 4.2861 7.69692 4.18529L7.80231 4.13489H7.82064L7.88938 4.1051L8.01769 4.04782L8.15975 3.98825L8.3041 3.92867L8.39117 3.8943L8.51031 3.85076L8.58821 3.82097H8.60883L8.67299 3.79807L8.92732 3.711L9.0098 3.6858L9.12437 3.65142L9.19998 3.62852H9.21372L9.2733 3.61018L9.3512 3.58957L9.44972 3.56208L9.57345 3.53H9.61927L9.79799 3.48646L10.0707 3.42918L10.1715 3.41085H10.1875L10.2631 3.3971H10.2746L10.3754 3.37877C10.4968 3.35814 10.6183 3.34211 10.7443 3.32607L10.8428 3.31232H10.8565H10.8955H10.9734L11.0903 3.30087H11.2277H11.2621H11.3308H11.4798H11.6654H11.7914H12.0457C14.3194 3.30231 16.5268 4.06712 18.3141 5.47272C20.1013 6.87831 21.3648 8.84328 21.9021 11.0526C22.4394 13.262 22.2193 15.5877 21.2771 17.6571C20.3349 19.7264 18.7253 21.4195 16.7061 22.4649Z" fill="white"/>
</svg>
